<svg height='100px' width='100px'  fill="#c5dbe8" xmlns="http://www.w3.org/2000/svg" xmlns:xlink="http://www.w3.org/1999/xlink" version="1.1" x="0px" y="0px" viewBox="0 211.834 100 100" enable-background="new 0 211.834 100 100" xml:space="preserve"><path stroke="#c5dbe8" fill="#c5dbe8" d="M84.083,249.852l-5.418-3.455c-0.113-0.072-0.246-0.111-0.381-0.111h-7.59l12.259-7.562  c0.246-0.152,0.376-0.438,0.326-0.725c-0.049-0.285-0.268-0.512-0.55-0.572l-7.006-1.496c-0.145-0.028-0.291-0.017-0.427,0.042  l-21.854,9.331l1.351-1.011c0.271-0.203,0.36-0.57,0.214-0.875l-1.309-2.711c-0.119-0.245-0.366-0.401-0.639-0.401H50h-3.06  c-0.272,0-0.52,0.156-0.638,0.401l-1.309,2.711c-0.147,0.305-0.058,0.672,0.213,0.875l1.35,1.011l-21.853-9.331  c-0.134-0.058-0.283-0.071-0.426-0.042l-7.007,1.496c-0.283,0.061-0.501,0.287-0.55,0.572c-0.049,0.286,0.08,0.572,0.326,0.725  l12.26,7.562h-7.59c-0.135,0-0.267,0.039-0.381,0.111l-5.418,3.455c-0.242,0.154-0.367,0.439-0.317,0.722s0.266,0.507,0.546,0.568  l24.289,5.326c0.05,0.011,0.102,0.017,0.152,0.017c0.182,0,0.359-0.07,0.493-0.2l2.871-2.782c0.406,1.415,1.283,4.035,2.988,9.048  l2.354,32.809c0.002,0.033,0.018,0.062,0.025,0.094c0.009,0.042,0.017,0.083,0.033,0.122c0.019,0.046,0.044,0.085,0.072,0.125  c0.022,0.033,0.043,0.066,0.071,0.096c0.035,0.035,0.074,0.062,0.116,0.09c0.032,0.022,0.062,0.046,0.098,0.062  c0.048,0.022,0.1,0.031,0.153,0.043c0.03,0.006,0.057,0.022,0.089,0.024c0.017,0.001,0.033,0.002,0.049,0.002h0c0,0,0,0,0.001,0  s0,0,0.001,0h0c0.016,0,0.033-0.001,0.049-0.002c0.032-0.002,0.059-0.019,0.089-0.024c0.053-0.012,0.104-0.021,0.153-0.043  c0.036-0.017,0.066-0.04,0.098-0.062c0.042-0.027,0.081-0.055,0.115-0.09c0.028-0.029,0.049-0.062,0.071-0.096  c0.027-0.04,0.053-0.079,0.071-0.125c0.017-0.039,0.024-0.08,0.033-0.122c0.007-0.032,0.023-0.06,0.025-0.094l2.354-32.809  c1.705-5.011,2.583-7.632,2.989-9.047l2.87,2.781c0.134,0.13,0.311,0.2,0.493,0.2c0.051,0,0.102-0.006,0.151-0.017l24.289-5.326  c0.28-0.062,0.496-0.286,0.546-0.568C84.45,250.291,84.325,250.006,84.083,249.852z M67.993,246.285h-6.314  c2.129-1.325,6.139-3.888,13.815-8.857l0.152-0.064l5.06,1.08L67.993,246.285z M54.751,246.285l13.005-5.553  c-4.228,2.715-8.078,5.165-8.785,5.553H54.751z M41.03,246.285c-0.708-0.388-4.558-2.838-8.785-5.553l13.005,5.553H41.03z   M47.385,241.723H50h2.616l0.861,1.784L50,246.109l-3.477-2.603L47.385,241.723z M19.294,238.443l5.06-1.08l0.152,0.064  c7.677,4.97,11.686,7.532,13.815,8.857h-6.314L19.294,238.443z M40.367,255.002l-22.242-4.878l3.797-2.421H47.9l-4.054,3.928  c-0.002,0.002-0.005,0.003-0.007,0.005c-0.019,0.019-0.036,0.036-0.053,0.054L40.367,255.002z M49.292,248.327v12.63l-1.224,0.507  c-1.104-3.259-2.622-7.826-2.963-9.079L49.292,248.327z M48.383,262.868L50,262.199l1.617,0.669L50,285.402L48.383,262.868z   M51.933,261.464l-1.224-0.506v-12.631l4.188,4.058C54.555,253.637,53.036,258.205,51.933,261.464z M59.633,255.002l-3.422-3.316  c-0.016-0.017-0.033-0.033-0.051-0.051c-0.002-0.002-0.004-0.002-0.005-0.003l-4.054-3.929h25.976l3.798,2.421L59.633,255.002z"></path></svg>