<svg xmlns="http://www.w3.org/2000/svg" xmlns:xlink="http://www.w3.org/1999/xlink" version="1.1" x="0px" y="0px" viewBox="432 0 100 100" enable-background="new 432 0 100 100" xml:space="preserve"><path stroke="#1a1a1a" fill="#1a1a1a" stroke-width="0.05px"  d="M519.582,21.612c-0.078-0.378-0.446-0.626-0.828-0.552c-0.041,0.007-0.085,0.021-0.127,0.037  c-0.376,0.125-4.379,1.349-9.916,3.038l7.741-7.558c0.242-0.236,0.283-0.61,0.099-0.894c-0.186-0.284-0.546-0.397-0.857-0.271  l-41.02,16.474l-12.849-3.753c-0.003-0.001-0.006,0-0.009-0.001c-0.003,0-0.005-0.003-0.008-0.004  c-0.021-0.005-0.04,0.001-0.06-0.002c-0.079-0.015-0.158-0.021-0.234-0.008c-0.032,0.005-0.06,0.02-0.09,0.029  c-0.064,0.02-0.124,0.043-0.181,0.08c-0.013,0.008-0.028,0.009-0.041,0.018l-4.264,3.181c-0.16,0.12-0.263,0.301-0.281,0.5  l-0.766,8.018c-0.02,0.204,0.05,0.405,0.189,0.554l0.593,0.628l-12.069,12.28c-0.258,0.264-0.271,0.681-0.031,0.96  c0.14,0.161,0.338,0.246,0.537,0.246c0.146,0,0.291-0.045,0.416-0.136l14.598-10.598c0.005-0.004,0.007-0.009,0.012-0.013  c0.007-0.004,0.014-0.006,0.02-0.011l2.621-2.134l-1.909,9.227c-0.047,0.228,0.021,0.465,0.182,0.633l14.089,14.758  c0.501,0.799,5.384,11.107,8.569,17.895c0.117,0.25,0.368,0.408,0.642,0.408c0.011,0,0.021-0.001,0.033-0.001  c0.286-0.014,0.536-0.198,0.634-0.468l5.65-15.66c0.015-0.041,0.012-0.083,0.019-0.125c0.004-0.023,0.02-0.044,0.021-0.068  c0.001-0.013-0.007-0.023-0.006-0.036c0.001-0.087-0.015-0.17-0.044-0.25c-0.006-0.017-0.006-0.035-0.013-0.051  c-0.043-0.094-0.106-0.176-0.186-0.244c-0.006-0.005-0.007-0.012-0.013-0.017l-6.629-5.374l1.01-15.107l2.166,0.417  c0.044,0.009,0.088,0.012,0.132,0.013c0.001,0,0.002,0,0.003,0c0.002,0,0.004-0.001,0.006-0.001  c0.114-0.001,0.225-0.039,0.325-0.093c0.014-0.007,0.028-0.004,0.041-0.012c0.012-0.007,0.018-0.019,0.028-0.026  c0.013-0.009,0.028-0.013,0.041-0.023c8.478-6.783,30.681-24.513,31.642-25.127C519.485,22.238,519.646,21.923,519.582,21.612z   M512.905,18.059l-7.144,6.975c-8.496,2.588-19.362,5.893-26.72,8.129l-2.166-0.633L512.905,18.059z M469.754,42.898l9.129-7.916  l6.791,10.976L469.754,42.898z M466.448,38.061l-3.563-8.143l11.619,3.395c0.001,0,0.002,0,0.004,0.001l3.094,0.904l-9.178,7.958  L466.448,38.061z M458.039,32.374l3.297-2.459l3.598,8.222l-5.161,4.203l-2.438-2.582L458.039,32.374z M457.649,42.157l0.99,1.049  l-7.055,5.122L457.649,42.157z M464.519,40.302l1.03-0.839l14.278,29.734l-17.495-18.327L464.519,40.302z M484.264,82.081  c-2.54-5.405-4.487-9.509-5.834-12.296l3.458,3.622c0.029,0.03,0.067,0.046,0.102,0.07c0.018,0.013,0.024,0.035,0.044,0.047  c0.013,0.008,0.027,0.005,0.041,0.012c0.103,0.054,0.212,0.091,0.326,0.091c0.118,0,0.235-0.037,0.344-0.097  c0.008-0.005,0.019-0.003,0.026-0.008l5.878-3.595L484.264,82.081z M488.774,68.189l-5.575,3.409l0.503-7.522L488.774,68.189z   M481.873,70.184l-12.438-25.904l13.99,2.689L481.873,70.184z M487.309,45.906l-7.175-11.594  c4.743-1.441,26.368-8.015,35.207-10.719C508.416,29.029,492.319,41.897,487.309,45.906z"/></svg>