<svg height='100px' width='100px'  fill="#000000" xmlns="http://www.w3.org/2000/svg" xmlns:xlink="http://www.w3.org/1999/xlink" version="1.1" x="0px" y="0px" viewBox="0 0 100 100" enable-background="new 0 0 100 100" xml:space="preserve"><path stroke-width="0.1px" stroke="#c5dbe8" fill="#c5dbe8" d="M76.586,52.796l17.822-19.278c0.16-0.173,0.177-0.436,0.041-0.628c-0.136-0.193-0.389-0.263-0.606-0.17l-17.918,7.755  c-0.101,0.043-0.184,0.119-0.238,0.215l-3.718,6.647l-8.786-0.834c-0.006-0.005-0.008-0.013-0.015-0.019l-4.915-4.133l-3.44-13.933  c-0.049-0.201-0.217-0.35-0.421-0.376l-3.222-0.417l-0.326-0.935c-0.06-0.172-0.209-0.298-0.389-0.329l-12.167-2.056l-5.965-6.18  c-0.094-0.098-0.224-0.153-0.36-0.153h0c-0.136,0-0.266,0.056-0.36,0.154l-4.102,4.27L6.166,12.69  c-0.23-0.104-0.5-0.022-0.632,0.191c-0.132,0.213-0.086,0.492,0.108,0.651l18.583,15.172l-3.53,6.528  c-0.106,0.197-0.069,0.441,0.092,0.597l5.934,5.757c0.017,0.016,0.038,0.023,0.057,0.037c0.094,0.086,0.208,0.143,0.331,0.143  c0.099,0,0.198-0.029,0.285-0.089l6.359-4.421l0.526,10.26c-0.015,0.062-0.017,0.126-0.006,0.192  c-0.007,0.086,0.006,0.17,0.041,0.247l2.936,16.713L31.559,86.73c-0.059,0.228,0.05,0.466,0.26,0.572  c0.071,0.036,0.148,0.053,0.224,0.053c0.147,0,0.292-0.065,0.39-0.187l6.863-8.529l-0.467,8.187  c-0.013,0.231,0.135,0.442,0.357,0.508c0.047,0.014,0.095,0.021,0.142,0.021c0.176,0,0.343-0.093,0.434-0.252l12.534-21.955  l1.827-0.88l12.568,2.359c0.079,0.015,0.158,0.01,0.232-0.011l6.851-1.996l0.148,22.238c0.001,0.234,0.165,0.435,0.394,0.485  c0.036,0.008,0.071,0.012,0.106,0.012c0.191,0,0.37-0.11,0.453-0.289l5.096-10.922l2.106,10.807c0.045,0.23,0.245,0.399,0.479,0.404  c0.004,0,0.007,0,0.011,0c0.23,0,0.432-0.158,0.486-0.382l3.681-15.197c0.02-0.082,0.019-0.167-0.003-0.248L82.844,57.07  c0.008-0.089-0.01-0.166-0.1-0.251c-0.008-0.013-0.012-0.029-0.021-0.041c-0.012-0.015-0.029-0.023-0.042-0.037  c-0.032-0.032-0.064-0.065-0.104-0.088c-0.007-0.004-0.017-0.005-0.025-0.009c-0.051-0.025-0.104-0.045-0.161-0.052  c-0.001,0-0.002-0.001-0.004-0.001c-0.002,0-0.004,0.001-0.006,0c-0.641-0.308-2.139-0.816-5.524-1.958L76.586,52.796z   M66.732,64.564l-11.016-2.417l16.567-13.606l2.941,2.856l0.348,1.32c0.001,0.013-0.004,0.025-0.002,0.039l1.345,9.134  L66.732,64.564z M34.388,30.099l17.137,16.28l-16.266,0.71L34.388,30.099z M52.744,47.327c0.001,0,0.001,0,0.002,0  c0.006,0,0.013,0,0.02-0.001l4.42-0.388l13.871,1.317l-11.69,9.601l-22.694-9.827L52.744,47.327z M76.478,41.325l15.589-6.747  L76.316,51.616l-0.16-0.608c-0.023-0.088-0.07-0.168-0.135-0.231l-3.13-3.039L76.478,41.325z M57.554,45.968l-1.426-4.098  l5.312,4.466L57.554,45.968z M53.924,28.989l3.029,12.269l-1.468-1.234l-3.948-11.343L53.924,28.989z M56.504,45.994l-3.601,0.316  L29.188,23.781l20.809,3.516L56.504,45.994z M28.092,27.267l1.831,8.212l-6.219-0.381L28.092,27.267z M30.521,33.571l-2.021-9.064  l3.194,3.034L30.521,33.571z M31.965,19.192l4.663,4.832l-8.005-1.353L31.965,19.192z M27.223,23.367l0.567,2.543  c-0.073,0.043-0.14,0.099-0.184,0.178l-1.57,2.802L9.263,15.198L27.223,23.367z M25.015,29.348l0.524,0.429l-3.091,5.517  c0,0,0,0,0,0.001l-0.005,0.009c-0.004,0.007-0.002,0.015-0.006,0.021c-0.03,0.061-0.046,0.125-0.051,0.192  c-0.001,0.024,0.001,0.045,0.003,0.069c0.004,0.053,0.018,0.104,0.039,0.155c0.006,0.015,0.004,0.032,0.012,0.046  c0.005,0.009,0.015,0.013,0.02,0.021c0.007,0.012,0.009,0.026,0.017,0.037l0.6,0.81l-1.32-1.281L25.015,29.348z M27.221,40.578  l-3.304-4.466l6.606,0.405c0.011,0,0.021,0.001,0.031,0.001l0,0c0.002,0,0.004,0,0.007,0c0.062-0.001,0.12-0.014,0.174-0.035  c0.016-0.007,0.029-0.018,0.044-0.026c0.038-0.019,0.074-0.039,0.105-0.067c0.017-0.015,0.028-0.033,0.042-0.05  c0.024-0.028,0.047-0.055,0.065-0.088c0.012-0.022,0.018-0.046,0.026-0.069s0.021-0.044,0.026-0.069l1.509-7.756l0.78,0.741  l0.358,6.979L27.221,40.578z M38.245,64.812c0.018-0.069,0.021-0.141,0.008-0.211L35.44,48.585l23.057,9.984l-4.212,3.459  c-0.01,0.008-0.011,0.021-0.021,0.03l-2.213,0.886l-1.342,0.148c-0.131,0.015-0.251,0.081-0.334,0.184l-17.269,21.46L38.245,64.812z   M51.722,64.314c-0.091,0.044-0.167,0.115-0.217,0.203L39.948,84.76l0.425-7.459l10.651-13.236l1.205-0.133  c0.045-0.005,0.089-0.016,0.13-0.033l1.342-0.537l0,0L51.722,64.314z M66.757,65.622l-11.909-2.235l0.214-0.359l11.574,2.539  c0.035,0.008,0.071,0.012,0.107,0.012c0.043,0,0.085-0.005,0.127-0.017l0.956-0.251L66.757,65.622z M74.765,63.487l2.836-0.745  c0.014-0.004,0.024-0.013,0.038-0.018c0.026-0.009,0.049-0.021,0.073-0.035c0.038-0.021,0.071-0.044,0.101-0.074  c0.01-0.01,0.024-0.014,0.034-0.024c1.382-1.545,2.891-3.199,3.834-4.188l-1.718,15.389l-5.058,10.84L74.765,63.487z M82.619,84.513  l-1.931-9.909l0.216-0.463c0.023-0.049,0.038-0.102,0.044-0.156l1.586-14.212l3.197,11.892L82.619,84.513z M81.4,57.257  c-0.605,0.597-1.666,1.734-3.586,3.874l-0.793-5.386C78.528,56.256,80.399,56.898,81.4,57.257z"></path></svg>